<?xml version="1.0" encoding="UTF-8" standalone="no"?>
<svg
   height="512"
   width="512"
   version="1.1"
   id="svg202"
   sodipodi:docname="assemblyscript.svg"
   xml:space="preserve"
   inkscape:version="1.2.1 (9c6d41e410, 2022-07-14)"
   xmlns:inkscape="http://www.inkscape.org/namespaces/inkscape"
   xmlns:sodipodi="http://sodipodi.sourceforge.net/DTD/sodipodi-0.dtd"
   xmlns="http://www.w3.org/2000/svg"
   xmlns:svg="http://www.w3.org/2000/svg"><defs
     id="defs206"><linearGradient
       id="a"
       gradientTransform="matrix(0.12970797,0,0,0.19997863,11.409779,-1e-6)"
       gradientUnits="userSpaceOnUse"
       x1="167.51685"
       x2="160.31"
       y1="24.393208"
       y2="320.03421"><stop
         offset="0"
         stop-color="#d9d8dc"
         id="stop2044" /><stop
         offset="1"
         stop-color="#fff"
         stop-opacity=".385275"
         id="stop2046" /></linearGradient><linearGradient
       id="b"
       gradientTransform="matrix(0.11420937,0,0,0.22711641,11.409779,-1e-6)"
       gradientUnits="userSpaceOnUse"
       x1="199.03606"
       x2="140.0712"
       y1="21.412943"
       y2="278.40781"><stop
         offset="0"
         stop-color="#8d67af"
         stop-opacity=".671932"
         id="stop2049" /><stop
         offset="1"
         stop-color="#9f8daf"
         id="stop2051" /></linearGradient><linearGradient
       id="c"
       gradientTransform="matrix(0.12266694,0,0,0.21145732,11.409779,-1e-6)"
       gradientUnits="userSpaceOnUse"
       x1="206.42825"
       x2="206.42825"
       y1="100.91758"
       y2="294.31174"><stop
         offset="0"
         stop-color="#26053d"
         stop-opacity=".761634"
         id="stop2054" /><stop
         offset="1"
         stop-color="#b7b4b4"
         stop-opacity=".277683"
         id="stop2056" /></linearGradient><linearGradient
       id="d"
       gradientTransform="matrix(0.18477958,0,0,0.14037711,11.409779,-1e-6)"
       gradientUnits="userSpaceOnUse"
       x1="23.483095"
       x2="112.93069"
       y1="171.71753"
       y2="351.72263"><stop
         offset="0"
         stop-color="#91739f"
         stop-opacity=".45955"
         id="stop2059" /><stop
         offset="1"
         stop-color="#32054f"
         stop-opacity=".539912"
         id="stop2061" /></linearGradient><linearGradient
       id="e"
       gradientTransform="matrix(0.14183937,0,0,0.18287462,11.409779,-1e-6)"
       gradientUnits="userSpaceOnUse"
       x1="226.7811"
       x2="67.803513"
       y1="317.25201"
       y2="147.4131"><stop
         offset="0"
         stop-color="#463d49"
         stop-opacity=".331182"
         id="stop2064" /><stop
         offset="1"
         stop-color="#340a50"
         stop-opacity=".821388"
         id="stop2066" /></linearGradient><linearGradient
       id="f"
       gradientTransform="matrix(0.10596912,0,0,0.24477717,11.409779,-1e-6)"
       gradientUnits="userSpaceOnUse"
       x1="248.0164"
       x2="200.70529"
       y1="88.755211"
       y2="255.00513"><stop
         offset="0"
         stop-color="#715383"
         stop-opacity=".145239"
         id="stop2069" /><stop
         offset="1"
         stop-color="#f4f4f4"
         stop-opacity=".233639"
         id="stop2071" /></linearGradient><linearGradient
       id="g"
       gradientTransform="matrix(0.09173097,0,0,0.28277061,11.409779,-1e-6)"
       gradientUnits="userSpaceOnUse"
       x1="307.5639"
       x2="156.45103"
       y1="109.963"
       y2="81.526764"><stop
         offset="0"
         stop-color="#a5a1a8"
         stop-opacity=".356091"
         id="stop2074" /><stop
         offset="1"
         stop-color="#370c50"
         stop-opacity=".581975"
         id="stop2076" /></linearGradient><clipPath
       id="a-3"><path
         d="M239.03 226.605l-42.13 24.317c-1.578.91-2.546 2.59-2.546 4.406v48.668c0 1.817.968 3.496 2.546 4.406l42.133 24.336c1.575.907 3.517.907 5.09 0l42.126-24.336c1.57-.91 2.54-2.59 2.54-4.406v-48.668c0-1.816-.97-3.496-2.55-4.406l-42.12-24.317c-.79-.453-1.67-.68-2.55-.68-.88 0-1.76.227-2.55.68"
         id="path3061" /></clipPath><linearGradient
       id="b-6"
       x1="-.348"
       x2="1.251"
       gradientTransform="matrix(-38.064915,77.652126,-77.652126,-38.064915,258.72325,244.62943)"
       gradientUnits="userSpaceOnUse"><stop
         offset=".3"
         stop-color="#3E863D"
         id="stop3064" /><stop
         offset=".5"
         stop-color="#55934F"
         id="stop3066" /><stop
         offset=".8"
         stop-color="#5AAD45"
         id="stop3068" /></linearGradient><clipPath
       id="c-7"><path
         d="M195.398 307.086c.403.523.907.976 1.5 1.316l36.14 20.875 6.02 3.46c.9.52 1.926.74 2.934.665.336-.027.672-.09 1-.183l44.434-81.36c-.34-.37-.738-.68-1.184-.94l-27.586-15.93-14.582-8.39c-.414-.24-.863-.41-1.32-.53zm0 0"
         id="path3071" /></clipPath><linearGradient
       id="d-5"
       x1="-.456"
       x2=".582"
       gradientTransform="matrix(106.8057,-78.916731,78.916731,106.8057,235.18824,285.39477)"
       gradientUnits="userSpaceOnUse"><stop
         offset=".57"
         stop-color="#3E863D"
         id="stop3074" /><stop
         offset=".72"
         stop-color="#619857"
         id="stop3076" /><stop
         offset="1"
         stop-color="#76AC64"
         id="stop3078" /></linearGradient><clipPath
       id="e-3"><path
         d="M241.066 225.953c-.707.07-1.398.29-2.035.652l-42.01 24.247 45.3 82.51c.63-.09 1.25-.3 1.81-.624l42.13-24.336c1.3-.754 2.19-2.03 2.46-3.476l-46.18-78.89c-.34-.067-.68-.102-1.03-.102-.14 0-.28.007-.42.02"
         id="path3081" /></clipPath><linearGradient
       id="f-5"
       x1=".043"
       x2=".984"
       gradientTransform="matrix(97.417,0,0,97.417,192.862,279.652)"
       gradientUnits="userSpaceOnUse"><stop
         offset=".16"
         stop-color="#6BBF47"
         id="stop3084" /><stop
         offset=".38"
         stop-color="#79B461"
         id="stop3086" /><stop
         offset=".47"
         stop-color="#75AC64"
         id="stop3088" /><stop
         offset=".7"
         stop-color="#659E5A"
         id="stop3090" /><stop
         offset=".9"
         stop-color="#3E863D"
         id="stop3092" /></linearGradient></defs><sodipodi:namedview
     id="namedview204"
     pagecolor="#ffffff"
     bordercolor="#000000"
     borderopacity="0.25"
     inkscape:showpageshadow="2"
     inkscape:pageopacity="0.0"
     inkscape:pagecheckerboard="0"
     inkscape:deskcolor="#d1d1d1"
     showgrid="false"
     inkscape:zoom="1.578125"
     inkscape:cx="257.58416"
     inkscape:cy="239.52475"
     inkscape:window-width="2560"
     inkscape:window-height="1371"
     inkscape:window-x="0"
     inkscape:window-y="32"
     inkscape:window-maximized="1"
     inkscape:current-layer="g965"
     showguides="true"><sodipodi:guide
       position="256.63366,488.94508"
       orientation="0,-1"
       id="guide1374"
       inkscape:locked="false" /><sodipodi:guide
       position="46.79347,320.63366"
       orientation="1,0"
       id="guide1376"
       inkscape:locked="false" /><sodipodi:guide
       position="257.90099,21.039946"
       orientation="0,-1"
       id="guide1378"
       inkscape:locked="false" /><sodipodi:guide
       position="470.13688,280.07921"
       orientation="1,0"
       id="guide1380"
       inkscape:locked="false" /></sodipodi:namedview><style
     id="style762">
    .st0{fill:#fff}
  </style><style
     type="text/css"
     id="style926">
	.st0{fill:#00ACD7;}
</style><g
     id="g965"
     transform="translate(28.428178,75.437795)"
     style="display:inline">
	
	
	
	
<g
   fill="none"
   id="g276"
   transform="matrix(1.6536852,0,0,1.6536852,18.365292,-29.824848)"><path
     d="M 98,0 H 0 V 256 H 256 V 0 H 158 C 158,16.569 144.569,30 128,30 111.431,30 98,16.569 98,0 Z"
     fill="#007acc"
     id="path272" /><path
     d="m 100.35,117.107 h 2.025 l 52.506,115.818 h -24.818 l -5.402,-13 H 78.063 l -5.402,13 H 49.869 Z m 15.87,83.065 -8.274,-19.922 c -0.9,-2.251 -1.744,-4.502 -2.532,-6.753 a 225.342,225.342 0 0 1 -2.195,-6.585 254.17,254.17 0 0 1 -2.195,-7.26 237.07,237.07 0 0 1 -2.194,7.43 3365.85,3365.85 0 0 1 -2.195,6.921 c -0.788,2.364 -1.576,4.446 -2.364,6.247 l -8.273,19.922 z m 79.306,34.273 c -5.515,0 -10.524,-0.619 -15.026,-1.857 -4.502,-1.239 -8.554,-2.927 -12.156,-5.065 -3.601,-2.139 -6.753,-4.671 -9.454,-7.598 -2.589,-3.039 -4.727,-6.246 -6.416,-9.623 l 19.247,-11.143 c 2.589,4.165 5.628,7.598 9.117,10.299 3.601,2.701 8.328,4.052 14.181,4.052 4.953,0 8.836,-1.07 11.65,-3.208 2.927,-2.251 4.39,-5.065 4.39,-8.442 0,-4.051 -1.52,-7.09 -4.56,-9.116 -3.039,-2.027 -7.259,-4.222 -12.661,-6.585 l -5.91,-2.532 c -4.277,-1.801 -8.16,-3.771 -11.649,-5.91 -3.49,-2.138 -6.472,-4.614 -8.948,-7.428 -2.476,-2.813 -4.39,-6.021 -5.74,-9.623 -1.35,-3.602 -2.026,-7.823 -2.026,-12.663 0,-4.39 0.788,-8.497 2.364,-12.324 1.688,-3.827 3.995,-7.147 6.922,-9.961 3.039,-2.813 6.697,-5.008 10.974,-6.585 4.277,-1.575 9.06,-2.363 14.35,-2.363 7.541,0 14.013,1.463 19.416,4.39 5.515,2.813 10.242,7.653 14.182,14.519 l -18.403,11.818 c -2.026,-3.602 -4.22,-6.19 -6.584,-7.766 -2.364,-1.576 -5.234,-2.364 -8.61,-2.364 -3.49,0 -6.247,0.957 -8.273,2.87 -2.027,1.913 -3.04,4.333 -3.04,7.26 0,3.602 1.126,6.36 3.377,8.273 2.364,1.8 6.078,3.827 11.143,6.078 l 5.91,2.532 c 5.064,2.139 9.51,4.39 13.337,6.753 3.94,2.251 7.203,4.84 9.792,7.766 2.701,2.814 4.727,6.078 6.078,9.793 1.463,3.601 2.195,7.878 2.195,12.83 0,5.29 -1.013,10.018 -3.04,14.183 a 28.948,28.948 0 0 1 -8.103,10.298 c -3.49,2.814 -7.654,4.953 -12.494,6.416 -4.727,1.35 -9.904,2.026 -15.532,2.026 z"
     fill="#ffffff"
     id="path274" /></g></g></svg>
