<?xml version="1.0" encoding="UTF-8" standalone="no"?>
<svg
   height="512"
   width="512"
   version="1.1"
   id="svg202"
   sodipodi:docname="js.svg"
   xml:space="preserve"
   inkscape:version="1.2.1 (9c6d41e410, 2022-07-14)"
   inkscape:export-filename="../../Projects/extism/docs/static/img/sdk-languages/js.svg"
   inkscape:export-xdpi="96"
   inkscape:export-ydpi="96"
   xmlns:inkscape="http://www.inkscape.org/namespaces/inkscape"
   xmlns:sodipodi="http://sodipodi.sourceforge.net/DTD/sodipodi-0.dtd"
   xmlns:xlink="http://www.w3.org/1999/xlink"
   xmlns="http://www.w3.org/2000/svg"
   xmlns:svg="http://www.w3.org/2000/svg"><defs
     id="defs206"><linearGradient
       id="a-36"
       x1="132.55"
       x2="134.37"
       y1="111.67"
       y2="-105.3"
       xlink:href="#b-7"><stop
         offset="0"
         stop-color="#d2d2d2"
         id="stop428" /><stop
         offset=".53"
         stop-color="#f2f2f2"
         id="stop430" /><stop
         offset="1"
         stop-color="#fff"
         id="stop432" /></linearGradient><linearGradient
       id="b-7"
       gradientUnits="userSpaceOnUse" /><filter
       id="e-5"
       class="b"
       x="-0.032727271"
       y="-0.032727271"
       width="1.0668182"
       height="1.0781817"><feFlood
         flood-opacity=".28"
         id="feFlood454" /><feComposite
         in2="SourceGraphic"
         operator="in"
         id="feComposite456" /><feGaussianBlur
         stdDeviation="3"
         id="feGaussianBlur458" /><feOffset
         dx=".3"
         dy="2.8"
         id="feOffset460"
         result="result1" /><feComposite
         in="SourceGraphic"
         in2="result1"
         id="feComposite462" /></filter><filter
       id="f-3"
       class="b"
       x="-0.015552675"
       y="-0.015559878"
       width="1.0311053"
       height="1.0477911"><feFlood
         class="c"
         id="feFlood465" /><feComposite
         class="c"
         in2="SourceGraphic"
         operator="out"
         id="feComposite467" /><feGaussianBlur
         flood-opacity=".3"
         stdDeviation=".7"
         id="feGaussianBlur469" /><feOffset
         dy="1.8"
         id="feOffset471" /><feComposite
         in2="SourceGraphic"
         operator="atop"
         id="feComposite473" /></filter><linearGradient
       id="c-5"
       x1="65.440002"
       x2="67.400002"
       y1="115.72"
       y2="17.139999"
       xlink:href="#b-7"><stop
         offset="0"
         stop-color="#005ad5"
         id="stop436" /><stop
         offset=".16"
         stop-color="#0875f0"
         id="stop438" /><stop
         offset=".31"
         stop-color="#218cee"
         id="stop440" /><stop
         offset=".63"
         stop-color="#27a5f3"
         id="stop442" /><stop
         offset=".81"
         stop-color="#25aaf2"
         id="stop444" /><stop
         offset="1"
         stop-color="#21aaef"
         id="stop446" /></linearGradient><radialGradient
       id="i"
       cx="-69.879997"
       cy="69.290001"
       r="54.009998"
       gradientTransform="matrix(0.9023,-0.01249,0.0377,2.7234,-9.44,-120.29)"
       xlink:href="#b-7"><stop
         offset="0"
         stop-color="#24a5f3"
         stop-opacity=".01"
         id="stop518" /><stop
         offset="1"
         stop-color="#1e8ceb"
         stop-opacity=".98"
         id="stop520" /></radialGradient><radialGradient
       id="j"
       cx="109.35"
       cy="13.76"
       r="93.080002"
       gradientTransform="matrix(-0.01822,1.0922,-1.042,-0.01765,136.95,-115.33)"
       xlink:href="#b-7"><stop
         offset="0"
         stop-opacity="0"
         id="stop523" /><stop
         offset=".96"
         stop-color="#5488d6"
         stop-opacity="0"
         id="stop525" /><stop
         offset="1"
         stop-color="#5d96eb"
         id="stop527" /></radialGradient><filter
       id="g-6"
       class="b"
       x="-0.078110807"
       y="-0.08998169"
       width="1.1796851"
       height="1.215712"><feFlood
         flood-opacity=".61"
         id="feFlood476" /><feComposite
         in2="SourceGraphic"
         operator="in"
         id="feComposite478" /><feGaussianBlur
         stdDeviation=".5"
         id="feGaussianBlur480" /><feOffset
         dx=".8"
         dy=".8"
         id="feOffset482"
         result="result1" /><feComposite
         in="SourceGraphic"
         result="A"
         in2="result1"
         id="feComposite484" /><feColorMatrix
         values="0 0 0 -1 0 0 0 0 -1 0 0 0 0 -1 0 0 0 0 1 0"
         id="feColorMatrix486" /><feFlood
         flood-opacity=".4"
         id="feFlood488" /><feComposite
         in2="A"
         operator="in"
         id="feComposite490" /><feGaussianBlur
         stdDeviation="3.8"
         id="feGaussianBlur492" /><feOffset
         dx="2.3"
         dy="3.3"
         id="feOffset494"
         result="result2" /><feComposite
         in="A"
         in2="result2"
         id="feComposite496" /></filter><linearGradient
       id="d-2"
       x1="158.7"
       x2="176.28"
       y1="96.709999"
       y2="79.529999"
       xlink:href="#b-7"><stop
         offset="0"
         stop-color="#c72e24"
         id="stop449" /><stop
         offset="1"
         stop-color="#fd3b2f"
         id="stop451" /></linearGradient><filter
       id="h"
       width="1.0340171"
       height="1.0349402"
       x="-0.016500814"
       y="-0.016457362"><feGaussianBlur
         in="SourceAlpha"
         stdDeviation=".4"
         id="feGaussianBlur499" /><feOffset
         dx=".1"
         dy=".2"
         id="feOffset501" /><feComponentTransfer
         result="A"
         id="feComponentTransfer505"><feFuncA
           type="linear"
           id="feFuncA503" /></feComponentTransfer><feFlood
         flood-color="rgba(0,0,0,0.5)"
         id="feFlood507" /><feComposite
         in2="A"
         operator="in"
         id="feComposite509" /><feMerge
         id="feMerge515"><feMergeNode
           id="feMergeNode511" /><feMergeNode
           in="SourceGraphic"
           id="feMergeNode513" /></feMerge></filter><linearGradient
       id="a-367"
       x1="145"
       x2="34"
       y1="253"
       y2="61"
       gradientUnits="userSpaceOnUse"><stop
         offset="0"
         stop-color="#1e8e3e"
         id="stop437" /><stop
         offset="1"
         stop-color="#34a853"
         id="stop439" /></linearGradient><linearGradient
       id="b-5"
       x1="111"
       x2="222"
       y1="254"
       y2="62"
       gradientUnits="userSpaceOnUse"><stop
         offset="0"
         stop-color="#fcc934"
         id="stop442-3" /><stop
         offset="1"
         stop-color="#fbbc04"
         id="stop444-5" /></linearGradient><linearGradient
       id="c-6"
       x1="17"
       x2="239"
       y1="80"
       y2="80"
       gradientUnits="userSpaceOnUse"><stop
         offset="0"
         stop-color="#d93025"
         id="stop447" /><stop
         offset="1"
         stop-color="#ea4335"
         id="stop449-2" /></linearGradient><linearGradient
       id="a-1"
       x1="44199.586"
       x2="6213.0981"
       y1="7661.3721"
       y2="45525.871"
       gradientTransform="scale(0.98375637,1.0165118)"
       gradientUnits="userSpaceOnUse"><stop
         offset=".05"
         stop-color="#fff44f"
         id="stop3479" /><stop
         offset=".37"
         stop-color="#ff980e"
         id="stop3481" /><stop
         offset=".53"
         stop-color="#ff3647"
         id="stop3483" /><stop
         offset=".7"
         stop-color="#e31587"
         id="stop3485" /></linearGradient><radialGradient
       id="b-9"
       cx="39281.598"
       cy="6226.6929"
       r="55415.699"
       gradientTransform="scale(1.108754,0.90191331)"
       fx="39281.598"
       fy="6226.6929"
       gradientUnits="userSpaceOnUse"><stop
         offset=".13"
         stop-color="#ffbd4f"
         id="stop3403" /><stop
         offset=".28"
         stop-color="#ff980e"
         id="stop3405" /><stop
         offset=".47"
         stop-color="#ff3750"
         id="stop3407" /><stop
         offset=".78"
         stop-color="#eb0878"
         id="stop3409" /><stop
         offset=".86"
         stop-color="#e50080"
         id="stop3411" /></radialGradient><radialGradient
       id="d-4"
       cx="22656.885"
       cy="29128.965"
       r="55415.699"
       gradientTransform="scale(1.108754,0.90191331)"
       fx="22656.885"
       fy="29128.965"
       gradientUnits="userSpaceOnUse"><stop
         offset=".3"
         stop-color="#960e18"
         id="stop3414" /><stop
         offset=".35"
         stop-color="#b11927"
         stop-opacity=".74"
         id="stop3416" /><stop
         offset=".43"
         stop-color="#db293d"
         stop-opacity=".34"
         id="stop3418" /><stop
         offset=".5"
         stop-color="#f5334b"
         stop-opacity=".1"
         id="stop3420" /><stop
         offset=".53"
         stop-color="#ff3750"
         stop-opacity="0"
         id="stop3422" /></radialGradient><radialGradient
       id="e-7"
       cx="39540.453"
       cy="-1719.7262"
       r="21021.621"
       gradientTransform="scale(0.76754304,1.3028585)"
       fx="39540.453"
       fy="-1719.7262"
       gradientUnits="userSpaceOnUse"><stop
         offset=".13"
         stop-color="#fff44f"
         id="stop3425" /><stop
         offset=".53"
         stop-color="#ff980e"
         id="stop3427" /></radialGradient><radialGradient
       id="f-8"
       cx="20627.596"
       cy="37417.375"
       r="22349.223"
       gradientTransform="scale(0.95515627,1.0469491)"
       fx="20627.596"
       fy="37417.375"
       gradientUnits="userSpaceOnUse"><stop
         offset=".35"
         stop-color="#3a8ee6"
         id="stop3430" /><stop
         offset=".67"
         stop-color="#9059ff"
         id="stop3432" /><stop
         offset="1"
         stop-color="#c139e6"
         id="stop3434" /></radialGradient><radialGradient
       id="h-4"
       cx="27162.508"
       cy="20183.889"
       r="13186.041"
       gradientTransform="scale(0.95515627,1.0469491)"
       fx="27162.508"
       fy="20183.889"
       gradientUnits="userSpaceOnUse"><stop
         offset=".21"
         stop-color="#9059ff"
         stop-opacity="0"
         id="stop3437" /><stop
         offset=".97"
         stop-color="#6e008b"
         stop-opacity=".6"
         id="stop3439" /></radialGradient><radialGradient
       id="i-5"
       cx="24063.305"
       cy="3778.9036"
       r="17002.672"
       gradientTransform="scale(0.99812558,1.0018779)"
       fx="24063.305"
       fy="3778.9036"
       gradientUnits="userSpaceOnUse"><stop
         offset=".1"
         stop-color="#ffe226"
         id="stop3442" /><stop
         offset=".79"
         stop-color="#ff7139"
         id="stop3444" /></radialGradient><radialGradient
       id="j-0"
       cx="36206.676"
       cy="-8063.2534"
       r="74241.227"
       gradientTransform="scale(1.0914697,0.91619584)"
       fx="36206.676"
       fy="-8063.2534"
       gradientUnits="userSpaceOnUse"><stop
         offset=".11"
         stop-color="#fff44f"
         id="stop3447" /><stop
         offset=".46"
         stop-color="#ff980e"
         id="stop3449" /><stop
         offset=".72"
         stop-color="#ff3647"
         id="stop3451" /><stop
         offset=".9"
         stop-color="#e31587"
         id="stop3453" /></radialGradient><radialGradient
       id="k"
       cx="47563.305"
       cy="-4089.9663"
       r="77986.367"
       gradientTransform="scale(0.68811942,1.4532361)"
       fx="47563.305"
       fy="-4089.9663"
       gradientUnits="userSpaceOnUse"><stop
         offset="0"
         stop-color="#fff44f"
         id="stop3456" /><stop
         offset=".3"
         stop-color="#ff980e"
         id="stop3458" /><stop
         offset=".57"
         stop-color="#ff3647"
         id="stop3460-3" /><stop
         offset=".74"
         stop-color="#e31587"
         id="stop3462" /></radialGradient><radialGradient
       id="l"
       cx="23978.531"
       cy="10002.467"
       r="46111.723"
       gradientTransform="scale(1.0089623,0.99111736)"
       fx="23978.531"
       fy="10002.467"
       gradientUnits="userSpaceOnUse"><stop
         offset=".14"
         stop-color="#fff44f"
         id="stop3465" /><stop
         offset=".48"
         stop-color="#ff980e"
         id="stop3467" /><stop
         offset=".66"
         stop-color="#ff3647"
         id="stop3469" /><stop
         offset=".9"
         stop-color="#e31587"
         id="stop3471" /></radialGradient><radialGradient
       id="m"
       cx="34303.074"
       cy="13307.432"
       r="52888.152"
       gradientTransform="scale(1.057276,0.94582683)"
       fx="34303.074"
       fy="13307.432"
       gradientUnits="userSpaceOnUse"><stop
         offset=".09"
         stop-color="#fff44f"
         id="stop3474" /><stop
         offset=".63"
         stop-color="#ff980e"
         id="stop3476" /></radialGradient><linearGradient
       id="n"
       x1="40661.988"
       x2="10409.422"
       y1="6929.4551"
       y2="41085.574"
       gradientTransform="scale(0.98375637,1.0165118)"
       gradientUnits="userSpaceOnUse"><stop
         offset=".17"
         stop-color="#fff44f"
         stop-opacity=".8"
         id="stop3488" /><stop
         offset=".6"
         stop-color="#fff44f"
         stop-opacity="0"
         id="stop3490" /></linearGradient><linearGradient
       id="B"
       x1="6870"
       x2="24704"
       y1="18705"
       y2="18705"
       xlink:href="#b-7"><stop
         offset="0"
         stop-color="#0c59a4"
         id="stop4709" /><stop
         offset="1"
         stop-color="#114a8b"
         id="stop4711" /></linearGradient><radialGradient
       id="D"
       cx="16720"
       cy="18747"
       r="9538"
       xlink:href="#b-7"><stop
         offset=".72"
         stop-opacity="0"
         id="stop4723" /><stop
         offset=".95"
         stop-opacity=".53"
         id="stop4725" /><stop
         offset="1"
         id="stop4727" /></radialGradient><linearGradient
       id="C"
       x1="16272"
       x2="5133"
       y1="10968"
       y2="23102"
       xlink:href="#b-7"><stop
         offset="0"
         stop-color="#1b9de2"
         id="stop4714" /><stop
         offset=".16"
         stop-color="#1595df"
         id="stop4716" /><stop
         offset=".67"
         stop-color="#0680d7"
         id="stop4718" /><stop
         offset="1"
         stop-color="#0078d4"
         id="stop4720" /></linearGradient><radialGradient
       id="E"
       cx="7130"
       cy="19866"
       r="14324"
       gradientTransform="matrix(0.14843,-0.98892,0.79688,0.1196,-8759,25542)"
       xlink:href="#b-7"><stop
         offset=".76"
         stop-opacity="0"
         id="stop4730" /><stop
         offset=".95"
         stop-opacity=".5"
         id="stop4732" /><stop
         offset="1"
         id="stop4734" /></radialGradient><radialGradient
       id="F"
       cx="2523"
       cy="4680"
       r="20243"
       gradientTransform="matrix(-0.03715,0.99931,-2.12836,-0.07913,13579,3530)"
       xlink:href="#b-7"><stop
         offset="0"
         stop-color="#35c1f1"
         id="stop4737" /><stop
         offset=".11"
         stop-color="#34c1ed"
         id="stop4739" /><stop
         offset=".23"
         stop-color="#2fc2df"
         id="stop4741" /><stop
         offset=".31"
         stop-color="#2bc3d2"
         id="stop4743" /><stop
         offset=".67"
         stop-color="#36c752"
         id="stop4745" /></radialGradient><radialGradient
       id="G"
       cx="24247"
       cy="7758"
       r="9734"
       gradientTransform="matrix(0.28109,0.95968,-0.78353,0.22949,24510,-16292)"
       xlink:href="#b-7"><stop
         offset="0"
         stop-color="#66eb6e"
         id="stop4748" /><stop
         offset="1"
         stop-color="#66eb6e"
         stop-opacity="0"
         id="stop4750" /></radialGradient></defs><sodipodi:namedview
     id="namedview204"
     pagecolor="#ffffff"
     bordercolor="#000000"
     borderopacity="0.25"
     inkscape:showpageshadow="2"
     inkscape:pageopacity="0.0"
     inkscape:pagecheckerboard="0"
     inkscape:deskcolor="#d1d1d1"
     showgrid="false"
     inkscape:zoom="1.28"
     inkscape:cx="74.21875"
     inkscape:cy="225"
     inkscape:window-width="2560"
     inkscape:window-height="1371"
     inkscape:window-x="0"
     inkscape:window-y="32"
     inkscape:window-maximized="1"
     inkscape:current-layer="g965"
     showguides="true"><sodipodi:guide
       position="256.63366,488.94508"
       orientation="0,-1"
       id="guide1374"
       inkscape:locked="false" /><sodipodi:guide
       position="46.79347,320.63366"
       orientation="1,0"
       id="guide1376"
       inkscape:locked="false" /><sodipodi:guide
       position="257.90099,21.039946"
       orientation="0,-1"
       id="guide1378"
       inkscape:locked="false" /><sodipodi:guide
       position="470.13688,280.07921"
       orientation="1,0"
       id="guide1380"
       inkscape:locked="false" /><sodipodi:guide
       position="10.9375,674.96837"
       orientation="0,-1"
       id="guide5745"
       inkscape:locked="false" /><sodipodi:guide
       position="15.625,592.23673"
       orientation="0,-1"
       id="guide5747"
       inkscape:locked="false" /></sodipodi:namedview><style
     id="style762">
    .st0{fill:#fff}
  </style><style
     type="text/css"
     id="style926">
	.st0{fill:#00ACD7;}
</style><g
     id="g965"
     transform="translate(28.428178,75.437795)"
     style="display:inline">
	
	
	
	
<g
   id="g553"
   transform="matrix(0.42946851,0,0,0.42946851,171.51014,101.12316)"><rect
     width="630"
     height="630"
     fill="#f7df1e"
     id="rect541"
     x="0"
     y="0" /><path
     d="m 423.2,492.19 c 12.69,20.72 29.2,35.95 58.4,35.95 24.53,0 40.2,-12.26 40.2,-29.2 0,-20.3 -16.1,-27.49 -43.1,-39.3 l -14.8,-6.35 c -42.72,-18.2 -71.1,-41 -71.1,-89.2 0,-44.4 33.83,-78.2 86.7,-78.2 37.64,0 64.7,13.1 84.2,47.4 l -46.1,29.6 c -10.15,-18.2 -21.1,-25.37 -38.1,-25.37 -17.34,0 -28.33,11 -28.33,25.37 0,17.76 11,24.95 36.4,35.95 l 14.8,6.34 c 50.3,21.57 78.7,43.56 78.7,93 0,53.3 -41.87,82.5 -98.1,82.5 -54.98,0 -90.5,-26.2 -107.88,-60.54 z m -209.13,5.13 c 9.3,16.5 17.76,30.45 38.1,30.45 19.45,0 31.72,-7.61 31.72,-37.2 v -201.3 h 59.2 v 202.1 c 0,61.3 -35.94,89.2 -88.4,89.2 -47.4,0 -74.85,-24.53 -88.81,-54.075 z"
     id="path543" /></g><g
   id="g5974"><g
     id="g5796"
     transform="matrix(1.6675695,0,0,1.6675695,134.045,675.12034)"><g
       id="g973"
       transform="matrix(0.6127516,0,0,0.6127516,-189.03256,-355.45014)"><g
         id="g800"><rect
           width="220"
           height="220"
           x="22"
           y="-106.53"
           fill="url(#a)"
           filter="url(#e)"
           ry="49"
           transform="matrix(0.56938,0,0,0.56921,186.86,255.75)"
           id="rect532"
           style="fill:url(#a-36);filter:url(#e-5)" /><g
           filter="url(#f)"
           transform="translate(194.2,190.07)"
           id="g538"
           style="filter:url(#f-3)"><ellipse
             cx="67.769997"
             cy="67.730003"
             fill="url(#c)"
             paint-order="stroke fill markers"
             rx="54.009998"
             ry="53.98"
             id="ellipse534"
             style="fill:url(#c-5)" /><ellipse
             cx="-69.879997"
             cy="69.290001"
             fill="url(#i)"
             rx="54.009998"
             ry="53.98"
             transform="translate(137.65,-1.55)"
             id="ellipse536"
             style="fill:url(#i)" /></g><ellipse
           cx="120"
           cy="14.15"
           fill="url(#j)"
           rx="93.080002"
           ry="93.669998"
           transform="matrix(0.58082,0,0,0.57636,192.3,249.63)"
           id="ellipse540"
           style="fill:url(#j)" /><g
           filter="url(#g)"
           transform="matrix(0.58289,0,0,0.56508,196.8,181.63)"
           id="g550"
           style="filter:url(#g-6)"><path
             fill="#cac7c8"
             d="m 46,191.66 0.73,0.35 72.18,-48.2 -7.34,-8.95 z"
             id="path542" /><path
             fill="#fbfffc"
             d="m 45.8,190.87 0.2,0.8 65.57,-56.8 -6.95,-8.92 -58.83,64.92 z"
             id="path544" /><path
             fill="url(#d)"
             d="m 118.91,143.81 -7.35,-8.95 66.08,-57.2 0.27,0.73 z"
             id="path546"
             style="fill:url(#d-2)" /><path
             fill="#fb645c"
             d="m 104.62,125.95 6.94,8.92 66.08,-57.2 -0.65,-0.35 z"
             id="path548" /></g><path
           stroke="#ffffff"
           stroke-linecap="round"
           stroke-miterlimit="1"
           stroke-width="1.33"
           d="m 286.59,278.44 3.14,-2.14 m -11.23,-17.8 7.8,-1.37 m -8.32,-2.9 3.78,-0.3 m -3.3,-12.47 7.8,1.38 m -8.2,3.03 3.76,0.38 m -1.2,-13.05 7.47,2.73 m -3.77,-10.5 6.86,3.96 m -1.87,-10.96 6.07,5.09 m 0.05,-11.07 5.09,6.07 m 1.97,-10.99 3.97,6.86 m 3.7,-10.53 2.71,7.43 m 5.62,-9.62 1.37,7.8 m 15.62,-7.89 -1.38,7.8 m 9.82,-5.6 -2.72,7.42 m 10.5,-3.75 -3.96,6.86 m 10.98,-1.89 -5.12,6.07 m 16.18,6.96 -6.87,3.96 m 10.45,3.88 -7.45,2.7 m 9.64,5.6 -7.82,1.38 m 7.81,15.79 -7.82,-1.39 m 5.6,9.7 -7.44,-2.71 m 3.8,10.47 -6.87,-3.95 m 1.91,10.98 -6.07,-5.07 m -0.05,11.2 -5.1,-6.08 m -1.95,10.99 -4,-6.88 m -3.87,10.5 -2.7,-7.43 m -5.61,9.61 -1.37,-7.78 m -15.78,7.75 1.4,-7.86 m -9.7,5.58 2.72,-7.47 m -10.5,3.73 3.97,-6.87 m -10.96,1.9 5.08,-6.03 m -8.26,3.13 2.75,-2.68 m 3.84,8.23 2.2,-3.1 m 5.2,7.44 1.66,-3.45 m 6.43,6.47 1.02,-3.7 m 7.52,5.32 0.43,-3.82 m 8.08,3.8 -0.31,-3.84 m 8.81,2.33 -0.97,-3.69 m 9.06,0.75 -1.58,-3.48 m 9.05,-0.76 -2.16,-3.18 m 8.78,-2.38 -2.68,-2.73 m 8.24,-3.85 -3.11,-2.2 m 7.42,-5.2 -3.47,-1.67 m 6.42,-6.41 -3.7,-1.03 m 5.17,-7.46 -3.78,-0.37 m 3.8,-8.24 -3.81,0.3 m 2.35,-8.8 -3.7,0.97 m 0.8,-9.06 -3.49,1.61 m -1.03,-9.12 -3.2,2.2 m -2.12,-8.62 -2.72,2.7 m -3.84,-8.28 -2.23,3.12 m -5.21,-7.45 -1.66,3.44 m -6.55,-6.32 -1.02,3.63 m -7.42,-5.2 -0.38,3.81 m -8.09,-3.66 0.28,3.8 m -8.79,-2.34 0.95,3.68 m -8.9,-0.72 1.61,3.46 m -9.06,0.82 2.18,3.16 m -8.82,2.27 2.68,2.7 m -8.25,3.85 3.1,2.23 m -7.44,5.17 3.42,1.66 m -6.3,6.36 3.7,1.05 m -3.71,24.39 3.7,-0.91 m -2.44,5.03 7.48,-2.72 m -5.86,6.73 3.5,-1.61 m -1.53,5.43 6.87,-3.95 m -13.33,-20.52 7.96,0.01 m 41.16,-41.44 v -7.96 m 0.02,98.74 0.01,-7.94 m 49.33,-41.4 -7.95,-0.01"
           filter="url(#h)"
           transform="translate(-65,7.73)"
           id="path552" /></g></g></g><g
     id="g5804"
     transform="matrix(1.6675695,0,0,1.6675695,-16.458458,500.88305)"><g
       id="g644"
       transform="matrix(0.32164537,0,0,0.32164537,20.468974,-238.01574)"><circle
         cx="128"
         cy="128"
         r="64"
         fill="#ffffff"
         id="circle452" /><path
         fill="url(#a)"
         d="M 96,183.4 A 63.7,63.7 0 0 1 72.6,160 L 17.2,64 A 128,128 0 0 0 128,256 l 55.4,-96 A 64,64 0 0 1 96,183.4 Z"
         id="path454"
         style="fill:url(#a-367)" /><path
         fill="url(#b)"
         d="m 192,128 a 63.7,63.7 0 0 1 -8.6,32 L 128,256 A 128,128 0 0 0 238.9,64 h -111 a 64,64 0 0 1 64,64 z"
         id="path456"
         style="fill:url(#b-5)" /><circle
         cx="128"
         cy="128"
         r="52"
         fill="#1a73e8"
         id="circle458" /><path
         fill="url(#c)"
         d="M 96,72.6 A 63.7,63.7 0 0 1 128,64 H 238.8 A 128,128 0 0 0 17.1,64 l 55.5,96 A 64,64 0 0 1 96,72.6 Z"
         id="path460"
         style="fill:url(#c-6)" /></g></g><g
     id="g5821"
     transform="matrix(1.6675695,0,0,1.6675695,-114.24312,355.00302)"><g
       id="g3656"
       transform="matrix(0.00166009,0,0,0.00166009,150.44214,-244.49841)"><path
         id="c-61"
         d="m 47870,16735 c -1044,-2512 -3160,-5224 -4820,-6082 1352,2650 2134,5310 2433,7294 0,-6 2,5 4,22 l 4,26 c 2268,6147 1032,12398 -748,16218 C 41989,40123 35323,46180 24886,45883 13610,45565 3676,37200 1822,26240 c -338,-1728 0,-2605 170,-4008 -207,1080 -286,1394 -390,3315 l -2,123 c 0,13270 10760,24030 24032,24030 11887,0 21756,-8630 23690,-19963 l 110,-927 c 477,-4120 -53,-8453 -1560,-12075 z" /><path
         id="g-0"
         d="m 25677,21050 c -40,598 -2150,2660 -2890,2660 -6834,0 -7943,4133 -7943,4133 303,3480 2726,6348 5660,7865 134,70 270,130 405,193 a 13277,13277 0 0 0 706,289 10674,10674 0 0 0 3127,603 c 11978,562 14300,-14320 5655,-18640 2213,-385 4510,505 5794,1407 -2100,-3672 -6025,-6150 -10530,-6150 -285,0 -564,24 -844,43 a 12025,12025 0 0 0 -6614,2549 c 366,310 780,724 1650,1583 1630,1606 5813,3270 5822,3465 z" /><path
         fill="url(#a)"
         d="m 47870,16735 c -1044,-2512 -3160,-5224 -4820,-6082 1352,2650 2134,5310 2433,7294 l 5,40 C 42770,11214 38163,8482 34400,2535 l -566,-920 a 7372,7372 0 0 1 -265,-497 4370,4370 0 0 1 -359,-950 63,63 0 0 0 -55,-65 82,82 0 0 0 -45,0 l -12,7 -17,10 10,-14 c -6037,3536 -8085,10076 -8274,13350 a 12025,12025 0 0 0 -6614,2548 7136,7136 0 0 0 -622,-470 11134,11134 0 0 1 -68,-5873 c -2468,1124 -4390,2900 -5785,4470 h -10 c -953,-1206 -886,-5187 -832,-6018 -10,-52 -710,363 -802,425 a 17507,17507 0 0 0 -2349,2012 21048,21048 0 0 0 -2244,2692 l -1,3 v -3 a 20284,20284 0 0 0 -3225,7280 l -32,160 a 39700,39700 0 0 0 -237,1500 l -5,52 a 22907,22907 0 0 0 -390,3316 l -1,120 c 0,13270 10760,24030 24032,24030 11887,0 21756,-8630 23690,-19963 l 110,-927 c 477,-4120 -53,-8453 -1560,-12075 z M 20170,35545 c 113,53 220,112 334,164 l 16,10 a 12620,12620 0 0 1 -350,-174 z m 5506,-14493 z m 19813,-3060 -3,-23 4,26 z"
         id="path3495"
         style="fill:url(#a-1)" /><use
         fill="url(#b)"
         xlink:href="#c-61"
         id="use3497"
         style="fill:url(#b-9)" /><use
         fill="url(#d)"
         xlink:href="#c-61"
         id="use3499"
         style="fill:url(#d-4)" /><path
         fill="url(#e)"
         d="m 36192,19560 150,110 A 13070,13070 0 0 0 34111,16759 C 26640,9290 32150,563 33080,120 l 10,-13 c -6037,3535 -8085,10076 -8273,13348 280,-20 560,-43 844,-43 4505,0 8430,2477 10530,6150 z"
         id="path3501"
         style="fill:url(#e-7)" /><use
         fill="url(#f)"
         xlink:href="#g-0"
         id="use3503"
         style="fill:url(#f-8)" /><use
         fill="url(#h)"
         xlink:href="#g-0"
         id="use3505"
         style="fill:url(#h-4)" /><path
         fill="url(#i)"
         d="m 17083,15204 a 24404,24404 0 0 1 498,330 11134,11134 0 0 1 -67,-5874 c -2470,1125 -4390,2900 -5785,4470 115,-3 3600,-66 5354,1074 z"
         id="path3507"
         style="fill:url(#i-5)" /><path
         fill="url(#j)"
         d="m 1822,26240 c 1855,10960 11788,19325 23063,19644 10437,296 17104,-5762 19858,-11670 1780,-3820 3016,-10070 748,-16218 v -2 l -4,-24 c -2,-17 -4,-28 -4,-22 l 5,40 c 853,5566 -1980,10958 -6405,14604 l -13,30 c -8625,7023 -16878,4237 -18550,3097 a 14410,14410 0 0 1 -350,-174 c -5028,-2403 -7105,-6984 -6660,-10913 -4245,0 -5693,-3580 -5693,-3580 0,0 3812,-2718 8836,-355 4653,2190 9023,355 9023,354 -10,-195 -4192,-1860 -5822,-3465 -872,-860 -1285,-1272 -1652,-1583 a 7136,7136 0 0 0 -622,-470 28293,28293 0 0 0 -498,-330 c -1753,-1140 -5240,-1076 -5355,-1073 h -10 c -953,-1207 -886,-5188 -832,-6020 -10,-50 -710,363 -802,426 a 17507,17507 0 0 0 -2349,2012 21048,21048 0 0 0 -2244,2692 l -1,3 v -3 a 20284,20284 0 0 0 -3225,7280 c -10,52 -865,3784 -444,5720 z"
         id="path3509"
         style="fill:url(#j-0)" /><path
         fill="url(#k)"
         d="m 34110,16760 a 13070,13070 0 0 1 2231,2910 l 360,296 c 5450,5020 2594,12120 2380,12626 4426,-3646 7258,-9038 6405,-14604 C 42770,11214 38163,8482 34400,2535 l -566,-920 a 7372,7372 0 0 1 -265,-497 4370,4370 0 0 1 -359,-950 63,63 0 0 0 -55,-65 82,82 0 0 0 -45,0 l -12,7 -17,10 c -930,443 -6440,9170 1030,16640 z"
         id="path3511"
         style="fill:url(#k)" /><path
         fill="url(#l)"
         d="m 36702,19965 a 4743,4743 0 0 0 -360,-295 l -150,-110 c -1283,-900 -3580,-1792 -5794,-1407 8644,4322 6323,19203 -5655,18640 a 10674,10674 0 0 1 -3127,-603 13451,13451 0 0 1 -706,-289 9064,9064 0 0 1 -405,-193 l 16,10 c 1670,1140 9924,3925 18550,-3097 l 13,-30 c 213,-506 3068,-7606 -2380,-12626 z"
         id="path3513"
         style="fill:url(#l)" /><path
         fill="url(#m)"
         d="m 14844,27844 c 0,0 1110,-4133 7943,-4133 740,0 2850,-2062 2890,-2660 40,-598 -4370,1836 -9023,-354 -5024,-2363 -8836,354 -8836,354 0,0 1448,3580 5693,3580 -445,3930 1632,8510 6660,10913 113,53 218,112 334,164 -2935,-1517 -5358,-4384 -5660,-7865 z"
         id="path3515"
         style="fill:url(#m)" /><path
         fill="url(#n)"
         d="m 47870,16735 c -1044,-2512 -3160,-5224 -4820,-6082 1352,2650 2134,5310 2433,7294 l 5,40 C 42770,11214 38163,8482 34400,2535 l -566,-920 a 7372,7372 0 0 1 -265,-497 4370,4370 0 0 1 -359,-950 63,63 0 0 0 -55,-65 82,82 0 0 0 -45,0 l -12,7 -17,10 10,-14 c -6037,3536 -8085,10076 -8274,13350 280,-20 560,-43 845,-43 4505,0 8430,2477 10530,6148 -1284,-900 -3580,-1792 -5795,-1407 8644,4322 6323,19203 -5655,18640 a 10674,10674 0 0 1 -3127,-603 13451,13451 0 0 1 -706,-289 9064,9064 0 0 1 -405,-193 l 17,10 a 14410,14410 0 0 1 -350,-174 c 112,53 218,112 333,164 -2935,-1517 -5358,-4384 -5660,-7865 0,0 1108,-4133 7942,-4133 740,0 2850,-2062 2890,-2660 -10,-195 -4190,-1860 -5822,-3465 -870,-860 -1285,-1272 -1650,-1583 a 7136,7136 0 0 0 -623,-470 11134,11134 0 0 1 -67,-5873 c -2470,1124 -4390,2900 -5785,4470 h -10 c -953,-1207 -886,-5187 -832,-6020 -10,-50 -710,363 -802,426 a 17507,17507 0 0 0 -2349,2012 21048,21048 0 0 0 -2243,2692 l -1,3 v -3 a 20284,20284 0 0 0 -3225,7280 l -32,160 a 39787,39787 0 0 0 -277,1515 c -2,18 2,-17 0,0 a 27956,27956 0 0 0 -355,3353 l -3,122 c 0,13270 10760,24030 24032,24030 11887,0 21756,-8630 23690,-19963 l 110,-927 c 477,-4120 -53,-8453 -1560,-12075 z m -2384,1234 4,26 v -2 z"
         id="path3517"
         style="fill:url(#n)" /></g></g><g
     id="g4923"
     transform="matrix(0.00517547,0,0,0.00517547,355.82245,-54.136899)"><g
       id="g5781"
       transform="matrix(1.0363534,0,0,1.0363534,-10900.881,-561.5453)"><path
         id="H"
         d="m 24105,20053 a 9345,9345 0 0 1 -1053,472 10202,10202 0 0 1 -3590,646 c -4732,0 -8855,-3255 -8855,-7432 0,-1175 680,-2193 1643,-2729 -4280,180 -5380,4640 -5380,7253 0,7387 6810,8137 8276,8137 791,0 1984,-230 2704,-456 l 130,-44 a 12834,12834 0 0 0 6660,-5282 c 220,-350 -168,-757 -535,-565 z" /><path
         id="I"
         d="m 11571,25141 a 7913,7913 0 0 1 -2273,-2137 8145,8145 0 0 1 -1514,-4740 8093,8093 0 0 1 3093,-6395 8082,8082 0 0 1 1373,-859 c 312,-148 846,-414 1554,-404 a 3236,3236 0 0 1 2569,1297 3184,3184 0 0 1 636,1866 c 0,-21 2446,-7960 -8005,-7960 -4390,0 -8004,4166 -8004,7820 0,2319 538,4170 1212,5604 a 12833,12833 0 0 0 7684,6757 12795,12795 0 0 0 3908,610 c 1414,0 2774,-233 4045,-656 a 7575,7575 0 0 1 -6278,-803 z" /><path
         id="J"
         d="m 16231,15886 c -80,105 -330,250 -330,566 0,260 170,512 472,723 1438,1003 4149,868 4156,868 a 5954,5954 0 0 0 3027,-839 6147,6147 0 0 0 1133,-850 6180,6180 0 0 0 1910,-4437 C 26625,9675 25803,8185 25466,7525 23346,3384 18772,1000 13798,1000 6787,1000 1095,6635 1000,13620 1047,9966 4679,7015 8996,7015 c 350,0 2346,34 4200,1007 1634,858 2490,1894 3086,2921 618,1067 728,2415 728,2952 0,537 -271,1333 -780,1990 z" /><use
         fill="url(#B)"
         xlink:href="#H"
         id="use4756"
         style="fill:url(#B)" /><use
         fill="url(#D)"
         opacity="0.35"
         xlink:href="#H"
         id="use4758"
         style="fill:url(#D)" /><use
         fill="url(#C)"
         xlink:href="#I"
         id="use4760"
         style="fill:url(#C)" /><use
         fill="url(#E)"
         opacity="0.4"
         xlink:href="#I"
         id="use4762"
         style="fill:url(#E)" /><use
         fill="url(#F)"
         xlink:href="#J"
         id="use4764"
         style="fill:url(#F)" /><use
         fill="url(#G)"
         xlink:href="#J"
         id="use4766"
         style="fill:url(#G)" /></g></g></g></g></svg>
