<?xml version="1.0" encoding="UTF-8" standalone="no"?>
<svg
   height="512"
   width="512"
   version="1.1"
   id="svg202"
   sodipodi:docname="cpp.svg"
   xml:space="preserve"
   inkscape:version="1.2.1 (9c6d41e410, 2022-07-14)"
   xmlns:inkscape="http://www.inkscape.org/namespaces/inkscape"
   xmlns:sodipodi="http://sodipodi.sourceforge.net/DTD/sodipodi-0.dtd"
   xmlns="http://www.w3.org/2000/svg"
   xmlns:svg="http://www.w3.org/2000/svg"><defs
     id="defs206" /><sodipodi:namedview
     id="namedview204"
     pagecolor="#ffffff"
     bordercolor="#000000"
     borderopacity="0.25"
     inkscape:showpageshadow="2"
     inkscape:pageopacity="0.0"
     inkscape:pagecheckerboard="0"
     inkscape:deskcolor="#d1d1d1"
     showgrid="false"
     inkscape:zoom="1.578125"
     inkscape:cx="255.68317"
     inkscape:cy="188.19802"
     inkscape:window-width="1920"
     inkscape:window-height="1011"
     inkscape:window-x="0"
     inkscape:window-y="32"
     inkscape:window-maximized="1"
     inkscape:current-layer="g965"
     showguides="true"><sodipodi:guide
       position="256.63366,488.94508"
       orientation="0,-1"
       id="guide1374"
       inkscape:locked="false" /><sodipodi:guide
       position="46.79347,320.63366"
       orientation="1,0"
       id="guide1376"
       inkscape:locked="false" /><sodipodi:guide
       position="257.90099,21.039946"
       orientation="0,-1"
       id="guide1378"
       inkscape:locked="false" /><sodipodi:guide
       position="470.13688,280.07921"
       orientation="1,0"
       id="guide1380"
       inkscape:locked="false" /></sodipodi:namedview><style
     id="style762">
    .st0{fill:#fff}
  </style><style
     type="text/css"
     id="style926">
	.st0{fill:#00ACD7;}
</style><g
     id="g965"
     transform="translate(28.428178,75.437795)">
	
	
	
	
<g
   id="g1564"
   transform="matrix(1.3558896,0,0,1.3558896,22.365292,-51.376972)"><path
     fill="#00599c"
     d="M 302.107,258.262 C 304.508,254.103 306,249.417 306,245.209 V 99.14 c 0,-4.208 -1.49,-8.893 -3.892,-13.052 L 153,172.175 Z"
     id="path1532" /><path
     fill="#004482"
     d="m 166.25,341.193 126.5,-73.034 c 3.644,-2.104 6.956,-5.737 9.357,-9.897 L 153,172.175 3.893,258.263 c 2.401,4.159 5.714,7.793 9.357,9.896 l 126.5,73.034 c 7.287,4.208 19.213,4.208 26.5,0 z"
     id="path1534" /><path
     fill="#659ad2"
     d="m 302.108,86.087 c -2.402,-4.16 -5.715,-7.793 -9.358,-9.897 L 166.25,3.156 c -7.287,-4.208 -19.213,-4.208 -26.5,0 L 13.25,76.19 C 5.962,80.397 0,90.725 0,99.14 v 146.069 c 0,4.208 1.491,8.894 3.893,13.053 L 153,172.175 Z"
     id="path1536" /><g
     id="g1540">
	<path
   fill="#ffffff"
   d="m 153,274.175 c -56.243,0 -102,-45.757 -102,-102 0,-56.243 45.757,-102 102,-102 36.292,0 70.139,19.53 88.331,50.968 l -44.143,25.544 C 188.083,130.951 171.15,121.175 153,121.175 c -28.122,0 -51,22.878 -51,51 0,28.121 22.878,51 51,51 18.152,0 35.085,-9.776 44.191,-25.515 l 44.143,25.543 c -18.192,31.441 -52.04,50.972 -88.334,50.972 z"
   id="path1538" />
</g><g
     id="g1544">
	<polygon
   fill="#ffffff"
   points="232.334,177.841 232.334,189.175 243.666,189.175 243.666,177.841 255,177.841 255,166.508 243.666,166.508 243.666,155.175 232.334,155.175 232.334,166.508 221,166.508 221,177.841 "
   id="polygon1542" />
</g><g
     id="g1548">
	<polygon
   fill="#ffffff"
   points="274.834,177.841 274.834,189.175 286.166,189.175 286.166,177.841 297.5,177.841 297.5,166.508 286.166,166.508 286.166,155.175 274.834,155.175 274.834,166.508 263.5,166.508 263.5,177.841 "
   id="polygon1546" />
</g></g></g></svg>
