<?xml version="1.0" encoding="UTF-8" standalone="no"?>
<svg
   height="512"
   width="512"
   version="1.1"
   id="svg202"
   sodipodi:docname="erlang.svg"
   xml:space="preserve"
   inkscape:version="1.2.1 (9c6d41e410, 2022-07-14)"
   xmlns:inkscape="http://www.inkscape.org/namespaces/inkscape"
   xmlns:sodipodi="http://sodipodi.sourceforge.net/DTD/sodipodi-0.dtd"
   xmlns="http://www.w3.org/2000/svg"
   xmlns:svg="http://www.w3.org/2000/svg"><defs
     id="defs206"><linearGradient
       id="a"
       gradientTransform="matrix(0.12970797,0,0,0.19997863,11.409779,-1e-6)"
       gradientUnits="userSpaceOnUse"
       x1="167.51685"
       x2="160.31"
       y1="24.393208"
       y2="320.03421"><stop
         offset="0"
         stop-color="#d9d8dc"
         id="stop2044" /><stop
         offset="1"
         stop-color="#fff"
         stop-opacity=".385275"
         id="stop2046" /></linearGradient><linearGradient
       id="b"
       gradientTransform="matrix(0.11420937,0,0,0.22711641,11.409779,-1e-6)"
       gradientUnits="userSpaceOnUse"
       x1="199.03606"
       x2="140.0712"
       y1="21.412943"
       y2="278.40781"><stop
         offset="0"
         stop-color="#8d67af"
         stop-opacity=".671932"
         id="stop2049" /><stop
         offset="1"
         stop-color="#9f8daf"
         id="stop2051" /></linearGradient><linearGradient
       id="c"
       gradientTransform="matrix(0.12266694,0,0,0.21145732,11.409779,-1e-6)"
       gradientUnits="userSpaceOnUse"
       x1="206.42825"
       x2="206.42825"
       y1="100.91758"
       y2="294.31174"><stop
         offset="0"
         stop-color="#26053d"
         stop-opacity=".761634"
         id="stop2054" /><stop
         offset="1"
         stop-color="#b7b4b4"
         stop-opacity=".277683"
         id="stop2056" /></linearGradient><linearGradient
       id="d"
       gradientTransform="matrix(0.18477958,0,0,0.14037711,11.409779,-1e-6)"
       gradientUnits="userSpaceOnUse"
       x1="23.483095"
       x2="112.93069"
       y1="171.71753"
       y2="351.72263"><stop
         offset="0"
         stop-color="#91739f"
         stop-opacity=".45955"
         id="stop2059" /><stop
         offset="1"
         stop-color="#32054f"
         stop-opacity=".539912"
         id="stop2061" /></linearGradient><linearGradient
       id="e"
       gradientTransform="matrix(0.14183937,0,0,0.18287462,11.409779,-1e-6)"
       gradientUnits="userSpaceOnUse"
       x1="226.7811"
       x2="67.803513"
       y1="317.25201"
       y2="147.4131"><stop
         offset="0"
         stop-color="#463d49"
         stop-opacity=".331182"
         id="stop2064" /><stop
         offset="1"
         stop-color="#340a50"
         stop-opacity=".821388"
         id="stop2066" /></linearGradient><linearGradient
       id="f"
       gradientTransform="matrix(0.10596912,0,0,0.24477717,11.409779,-1e-6)"
       gradientUnits="userSpaceOnUse"
       x1="248.0164"
       x2="200.70529"
       y1="88.755211"
       y2="255.00513"><stop
         offset="0"
         stop-color="#715383"
         stop-opacity=".145239"
         id="stop2069" /><stop
         offset="1"
         stop-color="#f4f4f4"
         stop-opacity=".233639"
         id="stop2071" /></linearGradient><linearGradient
       id="g"
       gradientTransform="matrix(0.09173097,0,0,0.28277061,11.409779,-1e-6)"
       gradientUnits="userSpaceOnUse"
       x1="307.5639"
       x2="156.45103"
       y1="109.963"
       y2="81.526764"><stop
         offset="0"
         stop-color="#a5a1a8"
         stop-opacity=".356091"
         id="stop2074" /><stop
         offset="1"
         stop-color="#370c50"
         stop-opacity=".581975"
         id="stop2076" /></linearGradient></defs><sodipodi:namedview
     id="namedview204"
     pagecolor="#ffffff"
     bordercolor="#000000"
     borderopacity="0.25"
     inkscape:showpageshadow="2"
     inkscape:pageopacity="0.0"
     inkscape:pagecheckerboard="0"
     inkscape:deskcolor="#d1d1d1"
     showgrid="false"
     inkscape:zoom="1.578125"
     inkscape:cx="256.9505"
     inkscape:cy="238.89109"
     inkscape:window-width="2560"
     inkscape:window-height="1371"
     inkscape:window-x="0"
     inkscape:window-y="32"
     inkscape:window-maximized="1"
     inkscape:current-layer="g965"
     showguides="true"><sodipodi:guide
       position="256.63366,488.94508"
       orientation="0,-1"
       id="guide1374"
       inkscape:locked="false" /><sodipodi:guide
       position="46.79347,320.63366"
       orientation="1,0"
       id="guide1376"
       inkscape:locked="false" /><sodipodi:guide
       position="257.90099,21.039946"
       orientation="0,-1"
       id="guide1378"
       inkscape:locked="false" /><sodipodi:guide
       position="470.13688,280.07921"
       orientation="1,0"
       id="guide1380"
       inkscape:locked="false" /></sodipodi:namedview><style
     id="style762">
    .st0{fill:#fff}
  </style><style
     type="text/css"
     id="style926">
	.st0{fill:#00ACD7;}
</style><g
     id="g965"
     transform="translate(28.428178,75.437795)"
     style="display:inline">
	
	
	
	
<g
   id="g2674"
   transform="matrix(1.74746,0,0,1.74746,18.340926,-3.2982364)"><g
     id="g8"
     style="fill:#a90533"><path
       d="M 38.003327,153.65612 C 19.2,133.73121 8.1983366,106.20487 8.2262178,73.362099 8.2002376,44.316871 17.326257,19.351168 33.015129,0.35394059 l -0.02535,0.009505 H 0.01393759 V 153.65929 H 37.979878 l 0.02345,-0.003 v 0 z"
       id="path10" /><path
       d="m 211.67271,153.66879 c 8.10012,-8.67548 15.3581,-18.89267 21.93489,-30.57742 l -36.49901,-18.24951 c -12.81837,20.83929 -31.56404,40.02091 -57.48594,40.14891 -37.72641,-0.128 -52.549066,-32.3878 -52.467323,-73.910493 H 228.13275 c 0.1882,-4.687841 0.1882,-6.867643 0,-9.124119 0.92008,-24.703366 -5.62693,-45.467881 -17.53663,-61.63833622 l -0.0615,0.0462574 h 31.74147 V 153.65992 h -30.67248 l 0.0691,0.009 v 0 z"
       id="path12" /><path
       d="M 89.437149,35.493743 C 90.997861,16.694218 105.81988,4.0513663 123.19873,4.0133465 c 17.49735,0.03802 30.13957,12.6808715 30.56792,31.4803965 z"
       id="path14" /></g><g
     id="g16"><path
       d="m 20.08903,179.6084 v -6.38669 H 0.47081188 v 37.86772 H 20.08903 v -6.38796 H 7.7706139 v -10.0366 H 19.632158 v -6.38732 H 7.7706139 v -8.66915 z"
       id="path18" /><path
       d="m 53.394376,195.12047 c 4.890614,-0.72617 7.576079,-5.57243 7.75604,-10.49346 -0.179961,-8.05069 -5.398812,-11.38186 -12.774654,-11.40593 H 38.338535 v 37.86772 h 7.299802 v -15.05584 l 9.124752,15.05584 h 9.124753 L 53.394376,195.12048 v 0 z m -7.756673,-15.96768 h 0.912475 c 3.982574,0.14955 6.971565,1.05822 6.843565,5.93109 0.128,4.46479 -2.759604,5.67636 -6.843565,5.47485 h -0.912475 z"
       id="path20" /><path
       d="m 86.699089,173.2217 h -7.299168 v 37.86772 h 17.792633 v -6.38796 H 86.699089 Z"
       id="path22" /><path
       d="m 134.60404,203.33275 3.19366,7.75604 h 7.75604 l -14.14336,-38.7802 h -5.93109 l -15.05584,38.7802 h 7.7554 l 3.1943,-7.75604 z m -1.82495,-5.93045 h -9.12475 l 4.10614,-14.14337 z"
       id="path24" /><path
       d="m 159.2415,211.08943 h 7.75541 v -25.54931 l 20.07509,26.46115 h 5.47422 v -38.77956 h -7.75541 v 25.5493 L 164.71572,172.3086 h -5.47422 z"
       id="path26" /><path
       d="m 224.48348,191.01434 v 5.93109 h 8.21228 c -0.17109,4.76641 -4.07192,8.80475 -8.66851,8.66851 -7.25925,0.13624 -10.85656,-6.87905 -10.94971,-13.23089 0.0932,-6.26693 3.63977,-13.58574 10.94971,-13.68713 3.8362,0.10076 7.07928,2.72539 8.66851,5.93109 l 6.38733,-3.19366 c -2.80903,-5.91715 -8.48349,-9.19826 -15.05584,-9.12476 -11.3128,-0.0729 -18.55747,9.2648 -18.70575,20.07446 0.14828,10.54036 7.19082,19.92871 18.24951,20.07446 11.94329,-0.14575 17.46566,-9.68555 17.33703,-20.5307 v -0.91247 z"
       id="path28" /></g></g></g></svg>
