<?xml version="1.0" encoding="UTF-8" standalone="no"?>
<svg
   height="512"
   width="512"
   version="1.1"
   id="svg202"
   sodipodi:docname="node.svg"
   xml:space="preserve"
   inkscape:version="1.2.1 (9c6d41e410, 2022-07-14)"
   xmlns:inkscape="http://www.inkscape.org/namespaces/inkscape"
   xmlns:sodipodi="http://sodipodi.sourceforge.net/DTD/sodipodi-0.dtd"
   xmlns="http://www.w3.org/2000/svg"
   xmlns:svg="http://www.w3.org/2000/svg"><defs
     id="defs206"><linearGradient
       id="a"
       gradientTransform="matrix(0.12970797,0,0,0.19997863,11.409779,-1e-6)"
       gradientUnits="userSpaceOnUse"
       x1="167.51685"
       x2="160.31"
       y1="24.393208"
       y2="320.03421"><stop
         offset="0"
         stop-color="#d9d8dc"
         id="stop2044" /><stop
         offset="1"
         stop-color="#fff"
         stop-opacity=".385275"
         id="stop2046" /></linearGradient><linearGradient
       id="b"
       gradientTransform="matrix(0.11420937,0,0,0.22711641,11.409779,-1e-6)"
       gradientUnits="userSpaceOnUse"
       x1="199.03606"
       x2="140.0712"
       y1="21.412943"
       y2="278.40781"><stop
         offset="0"
         stop-color="#8d67af"
         stop-opacity=".671932"
         id="stop2049" /><stop
         offset="1"
         stop-color="#9f8daf"
         id="stop2051" /></linearGradient><linearGradient
       id="c"
       gradientTransform="matrix(0.12266694,0,0,0.21145732,11.409779,-1e-6)"
       gradientUnits="userSpaceOnUse"
       x1="206.42825"
       x2="206.42825"
       y1="100.91758"
       y2="294.31174"><stop
         offset="0"
         stop-color="#26053d"
         stop-opacity=".761634"
         id="stop2054" /><stop
         offset="1"
         stop-color="#b7b4b4"
         stop-opacity=".277683"
         id="stop2056" /></linearGradient><linearGradient
       id="d"
       gradientTransform="matrix(0.18477958,0,0,0.14037711,11.409779,-1e-6)"
       gradientUnits="userSpaceOnUse"
       x1="23.483095"
       x2="112.93069"
       y1="171.71753"
       y2="351.72263"><stop
         offset="0"
         stop-color="#91739f"
         stop-opacity=".45955"
         id="stop2059" /><stop
         offset="1"
         stop-color="#32054f"
         stop-opacity=".539912"
         id="stop2061" /></linearGradient><linearGradient
       id="e"
       gradientTransform="matrix(0.14183937,0,0,0.18287462,11.409779,-1e-6)"
       gradientUnits="userSpaceOnUse"
       x1="226.7811"
       x2="67.803513"
       y1="317.25201"
       y2="147.4131"><stop
         offset="0"
         stop-color="#463d49"
         stop-opacity=".331182"
         id="stop2064" /><stop
         offset="1"
         stop-color="#340a50"
         stop-opacity=".821388"
         id="stop2066" /></linearGradient><linearGradient
       id="f"
       gradientTransform="matrix(0.10596912,0,0,0.24477717,11.409779,-1e-6)"
       gradientUnits="userSpaceOnUse"
       x1="248.0164"
       x2="200.70529"
       y1="88.755211"
       y2="255.00513"><stop
         offset="0"
         stop-color="#715383"
         stop-opacity=".145239"
         id="stop2069" /><stop
         offset="1"
         stop-color="#f4f4f4"
         stop-opacity=".233639"
         id="stop2071" /></linearGradient><linearGradient
       id="g"
       gradientTransform="matrix(0.09173097,0,0,0.28277061,11.409779,-1e-6)"
       gradientUnits="userSpaceOnUse"
       x1="307.5639"
       x2="156.45103"
       y1="109.963"
       y2="81.526764"><stop
         offset="0"
         stop-color="#a5a1a8"
         stop-opacity=".356091"
         id="stop2074" /><stop
         offset="1"
         stop-color="#370c50"
         stop-opacity=".581975"
         id="stop2076" /></linearGradient><clipPath
       id="a-3"><path
         d="M239.03 226.605l-42.13 24.317c-1.578.91-2.546 2.59-2.546 4.406v48.668c0 1.817.968 3.496 2.546 4.406l42.133 24.336c1.575.907 3.517.907 5.09 0l42.126-24.336c1.57-.91 2.54-2.59 2.54-4.406v-48.668c0-1.816-.97-3.496-2.55-4.406l-42.12-24.317c-.79-.453-1.67-.68-2.55-.68-.88 0-1.76.227-2.55.68"
         id="path3061" /></clipPath><linearGradient
       id="b-6"
       x1="-.348"
       x2="1.251"
       gradientTransform="matrix(-38.064915,77.652126,-77.652126,-38.064915,258.72325,244.62943)"
       gradientUnits="userSpaceOnUse"><stop
         offset=".3"
         stop-color="#3E863D"
         id="stop3064" /><stop
         offset=".5"
         stop-color="#55934F"
         id="stop3066" /><stop
         offset=".8"
         stop-color="#5AAD45"
         id="stop3068" /></linearGradient><clipPath
       id="c-7"><path
         d="M195.398 307.086c.403.523.907.976 1.5 1.316l36.14 20.875 6.02 3.46c.9.52 1.926.74 2.934.665.336-.027.672-.09 1-.183l44.434-81.36c-.34-.37-.738-.68-1.184-.94l-27.586-15.93-14.582-8.39c-.414-.24-.863-.41-1.32-.53zm0 0"
         id="path3071" /></clipPath><linearGradient
       id="d-5"
       x1="-.456"
       x2=".582"
       gradientTransform="matrix(106.8057,-78.916731,78.916731,106.8057,235.18824,285.39477)"
       gradientUnits="userSpaceOnUse"><stop
         offset=".57"
         stop-color="#3E863D"
         id="stop3074" /><stop
         offset=".72"
         stop-color="#619857"
         id="stop3076" /><stop
         offset="1"
         stop-color="#76AC64"
         id="stop3078" /></linearGradient><clipPath
       id="e-3"><path
         d="M241.066 225.953c-.707.07-1.398.29-2.035.652l-42.01 24.247 45.3 82.51c.63-.09 1.25-.3 1.81-.624l42.13-24.336c1.3-.754 2.19-2.03 2.46-3.476l-46.18-78.89c-.34-.067-.68-.102-1.03-.102-.14 0-.28.007-.42.02"
         id="path3081" /></clipPath><linearGradient
       id="f-5"
       x1=".043"
       x2=".984"
       gradientTransform="matrix(97.417,0,0,97.417,192.862,279.652)"
       gradientUnits="userSpaceOnUse"><stop
         offset=".16"
         stop-color="#6BBF47"
         id="stop3084" /><stop
         offset=".38"
         stop-color="#79B461"
         id="stop3086" /><stop
         offset=".47"
         stop-color="#75AC64"
         id="stop3088" /><stop
         offset=".7"
         stop-color="#659E5A"
         id="stop3090" /><stop
         offset=".9"
         stop-color="#3E863D"
         id="stop3092" /></linearGradient></defs><sodipodi:namedview
     id="namedview204"
     pagecolor="#ffffff"
     bordercolor="#000000"
     borderopacity="0.25"
     inkscape:showpageshadow="2"
     inkscape:pageopacity="0.0"
     inkscape:pagecheckerboard="0"
     inkscape:deskcolor="#d1d1d1"
     showgrid="false"
     inkscape:zoom="1.578125"
     inkscape:cx="256.9505"
     inkscape:cy="238.89109"
     inkscape:window-width="2560"
     inkscape:window-height="1371"
     inkscape:window-x="0"
     inkscape:window-y="32"
     inkscape:window-maximized="1"
     inkscape:current-layer="g965"
     showguides="true"><sodipodi:guide
       position="256.63366,488.94508"
       orientation="0,-1"
       id="guide1374"
       inkscape:locked="false" /><sodipodi:guide
       position="46.79347,320.63366"
       orientation="1,0"
       id="guide1376"
       inkscape:locked="false" /><sodipodi:guide
       position="257.90099,21.039946"
       orientation="0,-1"
       id="guide1378"
       inkscape:locked="false" /><sodipodi:guide
       position="470.13688,280.07921"
       orientation="1,0"
       id="guide1380"
       inkscape:locked="false" /></sodipodi:namedview><style
     id="style762">
    .st0{fill:#fff}
  </style><style
     type="text/css"
     id="style926">
	.st0{fill:#00ACD7;}
</style><g
     id="g965"
     transform="translate(28.428178,75.437795)"
     style="display:inline">
	
	
	
	
<g
   id="g3151"
   transform="matrix(0.95712957,0,0,0.95712957,17.869118,50.904544)"><path
     fill="#689f63"
     d="m 218.647,270.93 c -1.46,0 -2.91,-0.383 -4.19,-1.12 l -13.337,-7.896 c -1.992,-1.114 -1.02,-1.508 -0.363,-1.735 2.656,-0.93 3.195,-1.14 6.03,-2.75 0.298,-0.17 0.688,-0.11 0.993,0.07 l 10.246,6.08 c 0.37,0.2 0.895,0.2 1.238,0 l 39.95,-23.06 c 0.37,-0.21 0.61,-0.64 0.61,-1.08 v -46.1 c 0,-0.46 -0.24,-0.87 -0.618,-1.1 l -39.934,-23.04 c -0.37,-0.22 -0.86,-0.22 -1.23,0 l -39.926,23.04 c -0.387,0.22 -0.633,0.65 -0.633,1.09 v 46.1 c 0,0.44 0.24,0.86 0.62,1.07 l 10.94,6.32 c 5.94,2.97 9.57,-0.53 9.57,-4.05 v -45.5 c 0,-0.65 0.51,-1.15 1.16,-1.15 h 5.06 c 0.63,0 1.15,0.5 1.15,1.15 v 45.52 c 0,7.92 -4.32,12.47 -11.83,12.47 -2.31,0 -4.13,0 -9.21,-2.5 l -10.48,-6.04 c -2.59,-1.5 -4.19,-4.3 -4.19,-7.29 v -46.1 c 0,-3 1.6,-5.8 4.19,-7.28 l 39.99,-23.07 c 2.53,-1.43 5.89,-1.43 8.4,0 l 39.94,23.08 c 2.58,1.49 4.19,4.28 4.19,7.28 v 46.1 c 0,2.99 -1.61,5.78 -4.19,7.28 l -39.94,23.07 c -1.28,0.74 -2.73,1.12 -4.21,1.12"
     id="path3097" /><path
     fill="#689f63"
     d="m 230.987,239.164 c -17.48,0 -21.145,-8.024 -21.145,-14.754 0,-0.64 0.516,-1.15 1.157,-1.15 h 5.16 c 0.57,0 1.05,0.415 1.14,0.978 0.78,5.258 3.1,7.91 13.67,7.91 8.42,0 12,-1.902 12,-6.367 0,-2.57 -1.02,-4.48 -14.1,-5.76 -10.94,-1.08 -17.7,-3.49 -17.7,-12.24 0,-8.06 6.8,-12.86 18.19,-12.86 12.79,0 19.13,4.44 19.93,13.98 0.03,0.33 -0.09,0.65 -0.31,0.89 -0.22,0.23 -0.53,0.37 -0.85,0.37 h -5.19 c -0.54,0 -1.01,-0.38 -1.12,-0.9 -1.25,-5.53 -4.27,-7.3 -12.48,-7.3 -9.19,0 -10.26,3.2 -10.26,5.6 0,2.91 1.26,3.76 13.66,5.4 12.28,1.63 18.11,3.93 18.11,12.56 0,8.7 -7.26,13.69 -19.92,13.69 m 48.66,-48.89 h 1.34 c 1.1,0 1.31,-0.77 1.31,-1.22 0,-1.18 -0.81,-1.18 -1.26,-1.18 h -1.38 z m -1.63,-3.78 h 2.97 c 1.02,0 3.02,0 3.02,2.28 0,1.59 -1.02,1.92 -1.63,2.12 1.19,0.08 1.27,0.86 1.43,1.96 0.08,0.69 0.21,1.88 0.45,2.28 h -1.83 c -0.05,-0.4 -0.33,-2.6 -0.33,-2.72 -0.12,-0.49 -0.29,-0.73 -0.9,-0.73 h -1.51 v 3.46 h -1.67 z m -3.57,4.3 c 0,3.58 2.89,6.48 6.44,6.48 3.58,0 6.47,-2.96 6.47,-6.48 0,-3.59 -2.93,-6.44 -6.48,-6.44 -3.5,0 -6.44,2.81 -6.44,6.43 m 14.16,0.03 c 0,4.24 -3.47,7.7 -7.7,7.7 -4.2,0 -7.7,-3.42 -7.7,-7.7 0,-4.36 3.58,-7.7 7.7,-7.7 4.15,0 7.69,3.35 7.69,7.7"
     id="path3099" /><path
     fill="#333333"
     fill-rule="evenodd"
     d="m 94.936,90.55 c 0,-1.84 -0.97,-3.53 -2.558,-4.445 L 50.022,61.735 c -0.715,-0.42 -1.516,-0.64 -2.328,-0.67 h -0.438 c -0.812,0.03 -1.613,0.25 -2.34,0.67 L 2.562,86.105 C 0.984,87.025 0,88.715 0,90.555 l 0.093,65.64 c 0,0.91 0.47,1.76 1.27,2.21 0.78,0.48 1.76,0.48 2.54,0 l 25.18,-14.42 c 1.59,-0.946 2.56,-2.618 2.56,-4.44 V 108.88 c 0,-1.83 0.97,-3.52 2.555,-4.43 l 10.72,-6.174 c 0.796,-0.46 1.67,-0.688 2.56,-0.688 0.876,0 1.77,0.226 2.544,0.687 l 10.715,6.172 c 1.586,0.91 2.56,2.6 2.56,4.43 v 30.663 c 0,1.82 0.983,3.5 2.565,4.44 l 25.164,14.41 c 0.79,0.47 1.773,0.47 2.56,0 0.776,-0.45 1.268,-1.3 1.268,-2.21 z m 199.868,34.176 c 0,0.457 -0.243,0.88 -0.64,1.106 l -14.548,8.386 c -0.395,0.227 -0.883,0.227 -1.277,0 l -14.55,-8.386 c -0.4,-0.227 -0.64,-0.65 -0.64,-1.106 V 107.93 c 0,-0.458 0.24,-0.88 0.63,-1.11 l 14.54,-8.4 c 0.4,-0.23 0.89,-0.23 1.29,0 l 14.55,8.4 c 0.4,0.23 0.64,0.652 0.64,1.11 z m 3.93,-124.402 c -0.794,-0.442 -1.76,-0.43 -2.544,0.027 -0.78,0.46 -1.262,1.3 -1.262,2.21 v 65 c 0,0.64 -0.34,1.23 -0.894,1.55 -0.55,0.32 -1.235,0.32 -1.79,0 L 281.634,63 c -1.58,-0.914 -3.526,-0.914 -5.112,0 l -42.37,24.453 c -1.583,0.91 -2.56,2.6 -2.56,4.42 v 48.92 c 0,1.83 0.977,3.51 2.56,4.43 l 42.37,24.47 c 1.582,0.91 3.53,0.91 5.117,0 l 42.37,-24.48 c 1.58,-0.92 2.56,-2.6 2.56,-4.43 V 18.863 c 0,-1.856 -1.01,-3.563 -2.63,-4.47 z m 141.093,107.164 c 1.574,-0.914 2.543,-2.602 2.543,-4.422 V 91.21 c 0,-1.824 -0.97,-3.507 -2.547,-4.425 l -42.1,-24.44 c -1.59,-0.92 -3.54,-0.92 -5.13,0 l -42.36,24.45 c -1.59,0.92 -2.56,2.6 -2.56,4.43 v 48.9 c 0,1.84 0.99,3.54 2.58,4.45 l 42.09,23.99 c 1.55,0.89 3.45,0.9 5.02,0.03 l 25.46,-14.15 c 0.8,-0.45 1.31,-1.3 1.31,-2.22 0,-0.92 -0.49,-1.78 -1.29,-2.23 l -42.62,-24.46 c -0.8,-0.45 -1.29,-1.3 -1.29,-2.21 v -15.34 c 0,-0.916 0.48,-1.76 1.28,-2.216 l 13.26,-7.65 c 0.79,-0.46 1.76,-0.46 2.55,0 l 13.27,7.65 c 0.79,0.45 1.28,1.3 1.28,2.21 v 12.06 c 0,0.91 0.49,1.76 1.28,2.22 0.79,0.45 1.77,0.45 2.56,-0.01 z m 0,0"
     id="path3101" /><path
     fill="#689f63"
     fill-rule="evenodd"
     d="m 394.538,105.2 c 0.3,-0.177 0.676,-0.177 0.98,0 l 8.13,4.69 c 0.304,0.176 0.49,0.5 0.49,0.85 v 9.39 c 0,0.35 -0.186,0.674 -0.49,0.85 l -8.13,4.69 c -0.304,0.177 -0.68,0.177 -0.98,0 l -8.125,-4.69 c -0.31,-0.176 -0.5,-0.5 -0.5,-0.85 v -9.39 c 0,-0.35 0.18,-0.674 0.49,-0.85 z m 0,0"
     id="path3103" /><g
     clip-path="url(#a-3)"
     transform="translate(-78.306,-164.016)"
     id="g3107"><path
       fill="url(#b)"
       d="m 331.363,246.793 -118.715,-58.19 -60.87,124.174 118.712,58.193 z m 0,0"
       id="path3105"
       style="fill:url(#b-6)" /></g><g
     clip-path="url(#c-7)"
     transform="translate(-78.306,-164.016)"
     id="g3111"><path
       fill="url(#d)"
       d="m 144.07,264.004 83.825,113.453 110.86,-81.906 -83.83,-113.45 z m 0,0"
       id="path3109"
       style="fill:url(#d-5)" /></g><g
     clip-path="url(#e-3)"
     transform="translate(-78.306,-164.016)"
     id="g3115"><path
       fill="url(#f)"
       d="m 197.02,225.934 v 107.43 h 91.683 v -107.43 z m 0,0"
       id="path3113"
       style="fill:url(#f-5)" /></g></g></g></svg>
