<?xml version="1.0" encoding="UTF-8" standalone="no"?>
<svg
   height="512"
   width="512"
   version="1.1"
   id="svg202"
   sodipodi:docname="swift-ios.svg"
   xml:space="preserve"
   inkscape:version="1.2.1 (9c6d41e410, 2022-07-14)"
   xmlns:inkscape="http://www.inkscape.org/namespaces/inkscape"
   xmlns:sodipodi="http://sodipodi.sourceforge.net/DTD/sodipodi-0.dtd"
   xmlns="http://www.w3.org/2000/svg"
   xmlns:svg="http://www.w3.org/2000/svg"><defs
     id="defs206" /><sodipodi:namedview
     id="namedview204"
     pagecolor="#ffffff"
     bordercolor="#000000"
     borderopacity="0.25"
     inkscape:showpageshadow="2"
     inkscape:pageopacity="0.0"
     inkscape:pagecheckerboard="0"
     inkscape:deskcolor="#d1d1d1"
     showgrid="false"
     inkscape:zoom="1.578125"
     inkscape:cx="203.08911"
     inkscape:cy="219.88119"
     inkscape:window-width="1920"
     inkscape:window-height="1043"
     inkscape:window-x="305"
     inkscape:window-y="1440"
     inkscape:window-maximized="1"
     inkscape:current-layer="g779" /><style
     id="style762">
    .st0{fill:#fff}
  </style><g
     id="g847"
     transform="matrix(4.0011492,0,0,4.0011492,1030.5173,-1309.4595)">
	<path
   fill="#f05138"
   d="m -145.9,373.3 c 0,-1.1 0,-2.1 0,-3.2 -0.1,-2.3 -0.2,-4.7 -0.6,-7 -0.4,-2.3 -1.1,-4.5 -2.2,-6.6 -1.1,-2.1 -2.4,-4 -4.1,-5.6 -1.7,-1.7 -3.6,-3 -5.6,-4.1 -2.1,-1.1 -4.3,-1.8 -6.6,-2.2 -2.3,-0.4 -4.6,-0.6 -7,-0.6 -1.1,0 -2.1,0 -3.2,0 -1.3,0 -2.5,0 -3.8,0 h -28.1 -11.6 c -1.3,0 -2.5,0 -3.8,0 -1.1,0 -2.1,0 -3.2,0 -0.6,0 -1.2,0 -1.7,0.1 -1.7,0.1 -3.5,0.2 -5.2,0.5 -1.7,0.3 -3.4,0.8 -5,1.4 -0.5,0.2 -1.1,0.5 -1.6,0.7 -1.6,0.8 -3,1.8 -4.4,2.9 -0.4,0.4 -0.9,0.8 -1.3,1.2 -1.7,1.7 -3,3.6 -4.1,5.6 -1.1,2.1 -1.8,4.3 -2.2,6.6 -0.4,2.3 -0.5,4.6 -0.6,7 0,1.1 0,2.1 0,3.2 0,1.3 0,2.5 0,3.8 v 17.3 22.4 c 0,1.3 0,2.5 0,3.8 0,1.1 0,2.1 0,3.2 0.1,2.3 0.2,4.7 0.6,7 0.4,2.3 1.1,4.5 2.2,6.6 1.1,2.1 2.4,4 4.1,5.6 1.7,1.7 3.6,3 5.6,4.1 2.1,1.1 4.3,1.8 6.6,2.2 2.3,0.4 4.6,0.6 7,0.6 1.1,0 2.1,0 3.2,0 1.3,0 2.5,0 3.8,0 h 39.7 c 1.3,0 2.5,0 3.8,0 1.1,0 2.1,0 3.2,0 2.3,-0.1 4.7,-0.2 7,-0.6 2.3,-0.4 4.5,-1.1 6.6,-2.2 2.1,-1.1 4,-2.4 5.6,-4.1 1.7,-1.7 3,-3.6 4.1,-5.6 1.1,-2.1 1.8,-4.3 2.2,-6.6 0.4,-2.3 0.6,-4.6 0.6,-7 0,-1.1 0,-2.1 0,-3.2 0,-1.3 0,-2.5 0,-3.8 V 377 c 0,-1.2 0,-2.4 0,-3.7 z"
   id="path843" />
	<path
   fill="#ffffff"
   d="m -168,409.4 c 0.1,-0.4 0.2,-0.8 0.3,-1.2 4.4,-17.5 -6.3,-38.3 -24.5,-49.2 8,10.8 11.5,23.9 8.4,35.3 -0.3,1 -0.6,2 -1,3 -0.4,-0.3 -0.9,-0.6 -1.6,-0.9 0,0 -18.1,-11.2 -37.7,-30.9 -0.5,-0.5 10.5,15.7 22.9,28.8 -5.9,-3.3 -22.2,-15.2 -32.6,-24.6 1.3,2.1 2.8,4.2 4.4,6.1 8.6,11 19.9,24.5 33.4,34.9 -9.5,5.8 -22.9,6.3 -36.2,0 -3.3,-1.5 -6.4,-3.4 -9.3,-5.5 5.6,9 14.3,16.8 24.9,21.4 12.6,5.4 25.2,5.1 34.5,0.1 v 0 c 0,0 0.1,0 0.1,-0.1 0.4,-0.2 0.8,-0.5 1.2,-0.7 4.5,-2.3 13.3,-4.6 18.1,4.6 1.4,2.1 3.9,-9.9 -5.3,-21.1 0,0 0,0 0,0 z"
   id="path845" />
<g
   id="g779"
   transform="matrix(0.21559719,0,0,0.21559719,-91.57718,194.42683)"><path
     d="m -217,835.7 h -154 c -12.7,0 -23,-10.3 -23,-23 v -154 c 0,-12.7 10.3,-23 23,-23 h 154 c 12.7,0 23,10.3 23,23 v 154 c 0,12.7 -10.3,23 -23,23 z"
     id="path764"
     style="display:inline;fill:#000000;fill-opacity:1" /><path
     d="m -293.7,683 c 3.3,0 14,-2.1 22.3,-14.2 7.1,-10.5 6.3,-22.2 6.3,-22.2 0,0 -12.3,-0.9 -23.1,12.5 -7.8,9.8 -7.2,23.8 -7.2,23.8 0,0 0.6,0.1 1.7,0.1 z"
     class="st0"
     id="path766" /><path
     d="m -232,759.9 c 0.6,-1.7 1,-2.7 1,-2.7 h -0.1 c 0,0 -0.1,0 -0.2,-0.1 -0.6,-0.2 -2,-0.8 -3.8,-1.9 -3.6,-2.1 -8.6,-6 -12.2,-12.3 -2.3,-4 -3.9,-9 -4.3,-15.2 -0.2,-3.1 0.1,-6.1 0.7,-8.8 v -0.1 c 0.2,-0.9 0.4,-1.7 0.7,-2.6 3.2,-10.4 10.7,-17.2 13.7,-19.5 l 1.2,-0.9 c 0,0 -9.6,-14.9 -27.7,-14.9 -15.6,0 -21.4,7 -29.7,7 -10.2,0 -11.8,-6.5 -26.9,-6.5 -7.8,0 -18.7,3 -26.8,13.5 -6.4,8.2 -8.8,17.9 -9.8,25 -0.6,4.8 -0.8,10 -0.2,15.8 0,0.4 0.1,0.8 0.1,1.3 0.6,5.8 2.1,12 4.2,18.2 0,0.1 0.1,0.3 0.2,0.4 0.2,0.7 0.5,1.5 0.8,2.2 0.1,0.3 0.3,0.7 0.4,1 0.1,0.3 0.2,0.7 0.4,1 2,5.2 4.3,10.2 7,14.9 7.8,13.8 17.9,24.2 27.4,24.2 10.8,0 14.2,-7 25,-6.9 13.7,0.1 17.5,8.8 29,6.5 7.7,-1.5 16.9,-12.4 22.8,-22.8 0.2,-0.4 0.4,-0.7 0.6,-1 2.8,-6 5.2,-11.6 6.5,-14.8 z"
     class="st0"
     id="path768"
     style="display:inline" /></g></g></svg>
